STARTFONT 2.1
COMMENT
COMMENT  This font is copyrighted by its author, who reserves all rights under
COMMENT  national and international copyright laws.
COMMENT
COMMENT  Produced with bdfedit, a tcl/tk font editing program
COMMENT    written by Thomas A. Fine
COMMENT    Email to my last name at head.cfa.harvard.edu
COMMENT    http://hea-www.harvard.edu/~fine/
FONT -my9x15
SIZE 15 75 75
FONTBOUNDINGBOX 9 15 0 -2
STARTPROPERTIES 11
FOUNDRY "Fine"
FAMILY_NAME ""
WEIGHT_NAME "Medium"
SLANT "R"
SETWIDTH_NAME "Normal"
SPACING "c"
CHARSET_REGISTRY "ISO-8859"
CHARSET_ENCODING "1"
COPYRIGHT "Designer of this font retains full rights under the law"
FONT_ASCENT  13
FONT_DESCENT 2
ENDPROPERTIES
CHARS 256
STARTCHAR U+0000
ENCODING 0
SWIDTH 600 0
DWIDTH 9 0
BBX 8 11 0 1
BITMAP
18
3e
0f
87
ff
8f
0f
1f
0e
1c
1c
ENDCHAR
STARTCHAR U+0001
ENCODING 1
SWIDTH 600 0
DWIDTH 9 0
BBX 8 14 0 -2
BITMAP
ff
ff
ff
ff
ff
ff
ff
ff
ff
ff
ff
ff
ff
ff
ENDCHAR
STARTCHAR U+0002
ENCODING 2
SWIDTH 600 0
DWIDTH 9 0
BBX 9 14 0 -2
BITMAP
7000
8000
f000
1000
e000
1c00
0800
0800
0800
0480
0280
0300
0500
0480
ENDCHAR
STARTCHAR U+0003
ENCODING 3
SWIDTH 600 0
DWIDTH 9 0
BBX 9 14 0 -2
BITMAP
e000
8000
e000
8000
e000
1c00
0800
0800
0800
0480
0280
0300
0500
0480
ENDCHAR
STARTCHAR U+0004
ENCODING 4
SWIDTH 600 0
DWIDTH 9 0
BBX 9 14 0 -2
BITMAP
e000
8000
e000
8000
e000
1800
2400
2400
1800
0380
0100
0100
0100
0100
ENDCHAR
STARTCHAR U+0005
ENCODING 5
SWIDTH 600 0
DWIDTH 9 0
BBX 9 14 0 -2
BITMAP
e000
8000
e000
8000
e000
1200
1a00
1600
1200
0300
0480
0480
0500
0380
ENDCHAR
STARTCHAR U+0006
ENCODING 6
SWIDTH 600 0
DWIDTH 9 0
BBX 9 14 0 -2
BITMAP
6000
9000
f000
9000
9000
0c00
1000
1000
0c00
0280
0300
0300
0280
0280
ENDCHAR
STARTCHAR U+0007
ENCODING 7
SWIDTH 600 0
DWIDTH 9 0
BBX 9 10 0 0
BITMAP
0800
1c00
3e00
3600
3600
3600
6300
c180
ff80
1c00
ENDCHAR
STARTCHAR U+0008
ENCODING 8
SWIDTH 600 0
DWIDTH 9 0
BBX 7 10 1 0
BITMAP
e0
90
e0
90
e0
0e
10
0c
02
1c
ENDCHAR
STARTCHAR U+0009
ENCODING 9
SWIDTH 600 0
DWIDTH 9 0
BBX 7 10 1 0
BITMAP
90
90
f0
90
90
0e
04
04
04
04
ENDCHAR
STARTCHAR U+000A
ENCODING 10
SWIDTH 600 0
DWIDTH 9 0
BBX 6 10 1 0
BITMAP
80
80
80
80
e0
1c
10
1c
10
10
ENDCHAR
STARTCHAR U+000B
ENCODING 11
SWIDTH 600 0
DWIDTH 9 0
BBX 7 10 1 0
BITMAP
90
90
90
60
60
0e
04
04
04
04
ENDCHAR
STARTCHAR U+000C
ENCODING 12
SWIDTH 600 0
DWIDTH 9 0
BBX 6 10 1 0
BITMAP
e0
80
e0
80
80
1c
10
1c
10
10
ENDCHAR
STARTCHAR U+000D
ENCODING 13
SWIDTH 600 0
DWIDTH 9 0
BBX 7 11 0 -1
BITMAP
70
90
80
90
60
00
1c
12
1e
14
12
ENDCHAR
STARTCHAR U+000E
ENCODING 14
SWIDTH 600 0
DWIDTH 9 0
BBX 7 10 1 0
BITMAP
70
80
60
10
e0
0c
12
12
12
0c
ENDCHAR
STARTCHAR U+000F
ENCODING 15
SWIDTH 600 0
DWIDTH 9 0
BBX 7 10 1 0
BITMAP
70
80
60
10
e0
0e
04
04
04
0e
ENDCHAR
STARTCHAR U+0010
ENCODING 16
SWIDTH 600 0
DWIDTH 9 0
BBX 9 14 0 -2
BITMAP
e000
9000
9000
9000
e000
1000
1000
1000
1c00
0380
0200
0300
0200
0380
ENDCHAR
STARTCHAR U+0011
ENCODING 17
SWIDTH 600 0
DWIDTH 9 0
BBX 8 14 0 -2
BITMAP
e0
90
90
90
e0
1c
24
20
20
1d
03
01
01
01
ENDCHAR
STARTCHAR U+0012
ENCODING 18
SWIDTH 600 0
DWIDTH 9 0
BBX 9 14 0 -2
BITMAP
e000
9000
9000
9000
e000
1c00
2400
2000
2000
1b00
0480
0100
0200
0780
ENDCHAR
STARTCHAR U+0013
ENCODING 19
SWIDTH 600 0
DWIDTH 9 0
BBX 9 14 0 -2
BITMAP
e000
9000
9000
9000
e000
1c00
2400
2000
2000
1b00
0080
0300
0080
0300
ENDCHAR
STARTCHAR U+0014
ENCODING 20
SWIDTH 600 0
DWIDTH 9 0
BBX 9 14 0 -2
BITMAP
e000
9000
9000
9000
e000
1c00
2400
2000
2000
1900
0300
0500
0f80
0100
ENDCHAR
STARTCHAR U+0015
ENCODING 21
SWIDTH 600 0
DWIDTH 9 0
BBX 9 14 0 -2
BITMAP
9000
d000
b000
9000
9000
0c00
1200
1e00
1200
0480
0500
0600
0500
0480
ENDCHAR
STARTCHAR U+0016
ENCODING 22
SWIDTH 600 0
DWIDTH 9 0
BBX 9 14 0 -2
BITMAP
7000
8000
6000
1000
e000
2200
1400
0800
0800
0480
0680
0580
0480
0480
ENDCHAR
STARTCHAR U+0017
ENCODING 23
SWIDTH 600 0
DWIDTH 9 0
BBX 9 14 0 -2
BITMAP
e000
8000
e000
8000
e000
1c00
0800
0800
0800
0700
0480
0700
0480
0700
ENDCHAR
STARTCHAR U+0018
ENCODING 24
SWIDTH 600 0
DWIDTH 9 0
BBX 9 14 0 -2
BITMAP
7000
9000
8000
8000
7000
0c00
1200
1e00
1200
0480
0680
0580
0480
0480
ENDCHAR
STARTCHAR U+0019
ENCODING 25
SWIDTH 600 0
DWIDTH 9 0
BBX 8 10 0 0
BITMAP
e0
80
e0
80
e0
11
1b
15
15
11
ENDCHAR
STARTCHAR U+001A
ENCODING 26
SWIDTH 600 0
DWIDTH 9 0
BBX 9 14 0 -2
BITMAP
7000
8000
6000
1000
e000
2400
2400
2400
1800
0700
0480
0700
0480
0700
ENDCHAR
STARTCHAR U+001B
ENCODING 27
SWIDTH 600 0
DWIDTH 9 0
BBX 9 14 0 -2
BITMAP
e000
8000
e000
8000
e000
1c00
2000
1800
0400
3b80
0480
0400
0400
0380
ENDCHAR
STARTCHAR U+001C
ENCODING 28
SWIDTH 600 0
DWIDTH 9 0
BBX 6 10 1 0
BITMAP
e0
80
e0
80
80
1c
20
18
04
38
ENDCHAR
STARTCHAR U+001D
ENCODING 29
SWIDTH 600 0
DWIDTH 9 0
BBX 7 10 1 0
BITMAP
70
80
b0
90
70
0e
10
0c
02
1c
ENDCHAR
STARTCHAR U+001E
ENCODING 30
SWIDTH 600 0
DWIDTH 9 0
BBX 7 10 1 0
BITMAP
e0
90
e0
a0
90
0e
10
0c
02
1c
ENDCHAR
STARTCHAR U+001F
ENCODING 31
SWIDTH 600 0
DWIDTH 9 0
BBX 7 10 1 0
BITMAP
90
90
90
90
60
0e
10
0c
02
1c
ENDCHAR
STARTCHAR U+0020
ENCODING 32
SWIDTH 600 0
DWIDTH 9 0
BBX 0 0 0 0
BITMAP
ENDCHAR
STARTCHAR U+0021
ENCODING 33
SWIDTH 600 0
DWIDTH 9 0
BBX 2 10 3 0
BITMAP
c0
c0
c0
c0
c0
c0
40
00
c0
c0
ENDCHAR
STARTCHAR U+0022
ENCODING 34
SWIDTH 600 0
DWIDTH 9 0
BBX 4 3 3 8
BITMAP
90
90
90
ENDCHAR
STARTCHAR U+0023
ENCODING 35
SWIDTH 600 0
DWIDTH 9 0
BBX 8 10 0 0
BITMAP
24
24
24
ff
24
24
ff
24
24
24
ENDCHAR
STARTCHAR U+0024
ENCODING 36
SWIDTH 600 0
DWIDTH 9 0
BBX 7 12 1 -1
BITMAP
08
7c
ca
c8
e8
78
3c
2e
26
a6
7c
20
ENDCHAR
STARTCHAR U+0025
ENCODING 37
SWIDTH 600 0
DWIDTH 9 0
BBX 8 10 1 0
BITMAP
70
d9
da
74
08
10
2e
5b
9b
0e
ENDCHAR
STARTCHAR U+0026
ENCODING 38
SWIDTH 600 0
DWIDTH 9 0
BBX 8 10 0 0
BITMAP
38
6c
6c
68
33
5b
ca
cc
ee
73
ENDCHAR
STARTCHAR U+0027
ENCODING 39
SWIDTH 600 0
DWIDTH 9 0
BBX 3 4 3 7
BITMAP
e0
e0
20
c0
ENDCHAR
STARTCHAR U+0028
ENCODING 40
SWIDTH 600 0
DWIDTH 9 0
BBX 5 12 2 -1
BITMAP
18
30
60
60
c0
c0
c0
c0
60
60
30
18
ENDCHAR
STARTCHAR U+0029
ENCODING 41
SWIDTH 600 0
DWIDTH 9 0
BBX 5 12 2 -1
BITMAP
c0
60
30
30
18
18
18
18
30
30
60
c0
ENDCHAR
STARTCHAR U+002A
ENCODING 42
SWIDTH 600 0
DWIDTH 9 0
BBX 5 5 2 5
BITMAP
20
a8
70
a8
20
ENDCHAR
STARTCHAR U+002B
ENCODING 43
SWIDTH 600 0
DWIDTH 9 0
BBX 7 7 1 1
BITMAP
10
10
10
fe
10
10
10
ENDCHAR
STARTCHAR U+002C
ENCODING 44
SWIDTH 600 0
DWIDTH 9 0
BBX 3 4 3 -2
BITMAP
e0
e0
20
c0
ENDCHAR
STARTCHAR U+002D
ENCODING 45
SWIDTH 600 0
DWIDTH 9 0
BBX 7 1 1 4
BITMAP
fe
ENDCHAR
STARTCHAR U+002E
ENCODING 46
SWIDTH 600 0
DWIDTH 9 0
BBX 3 2 3 0
BITMAP
e0
e0
ENDCHAR
STARTCHAR U+002F
ENCODING 47
SWIDTH 600 0
DWIDTH 9 0
BBX 7 12 1 -1
BITMAP
06
06
0c
0c
18
18
30
30
60
60
c0
c0
ENDCHAR
STARTCHAR U+0030
ENCODING 48
SWIDTH 600 0
DWIDTH 9 0
BBX 7 10 1 0
BITMAP
38
6c
c6
c6
d6
d6
c6
c6
6c
38
ENDCHAR
STARTCHAR U+0031
ENCODING 49
SWIDTH 600 0
DWIDTH 9 0
BBX 4 10 2 0
BITMAP
30
70
b0
30
30
30
30
30
30
30
ENDCHAR
STARTCHAR U+0032
ENCODING 50
SWIDTH 600 0
DWIDTH 9 0
BBX 7 10 1 0
BITMAP
7c
ce
06
06
0c
18
30
60
fe
fe
ENDCHAR
STARTCHAR U+0033
ENCODING 51
SWIDTH 600 0
DWIDTH 9 0
BBX 7 10 1 0
BITMAP
7c
ce
06
0c
38
0c
06
06
ce
7c
ENDCHAR
STARTCHAR U+0034
ENCODING 52
SWIDTH 600 0
DWIDTH 9 0
BBX 7 10 1 0
BITMAP
0c
1c
2c
4c
8c
fe
fe
0c
0c
0c
ENDCHAR
STARTCHAR U+0035
ENCODING 53
SWIDTH 600 0
DWIDTH 9 0
BBX 7 10 1 0
BITMAP
fe
fe
80
80
fc
0e
06
06
cc
78
ENDCHAR
STARTCHAR U+0036
ENCODING 54
SWIDTH 600 0
DWIDTH 9 0
BBX 7 10 1 0
BITMAP
3c
66
c0
d8
ec
c6
c6
c6
6c
38
ENDCHAR
STARTCHAR U+0037
ENCODING 55
SWIDTH 600 0
DWIDTH 9 0
BBX 7 10 1 0
BITMAP
fe
fe
06
0c
18
30
30
60
60
60
ENDCHAR
STARTCHAR U+0038
ENCODING 56
SWIDTH 600 0
DWIDTH 9 0
BBX 7 10 1 0
BITMAP
7c
c6
c6
e4
78
7c
ce
c6
c6
7c
ENDCHAR
STARTCHAR U+0039
ENCODING 57
SWIDTH 600 0
DWIDTH 9 0
BBX 7 10 1 0
BITMAP
38
6c
c6
c6
c6
6e
36
06
cc
78
ENDCHAR
STARTCHAR U+003A
ENCODING 58
SWIDTH 600 0
DWIDTH 9 0
BBX 2 7 3 0
BITMAP
c0
c0
00
00
00
c0
c0
ENDCHAR
STARTCHAR U+003B
ENCODING 59
SWIDTH 600 0
DWIDTH 9 0
BBX 2 9 3 -2
BITMAP
c0
c0
00
00
00
c0
c0
40
80
ENDCHAR
STARTCHAR U+003C
ENCODING 60
SWIDTH 600 0
DWIDTH 9 0
BBX 5 7 2 1
BITMAP
18
30
60
c0
60
30
18
ENDCHAR
STARTCHAR U+003D
ENCODING 61
SWIDTH 600 0
DWIDTH 9 0
BBX 7 3 1 3
BITMAP
fe
00
fe
ENDCHAR
STARTCHAR U+003E
ENCODING 62
SWIDTH 600 0
DWIDTH 9 0
BBX 5 7 2 1
BITMAP
c0
60
30
18
30
60
c0
ENDCHAR
STARTCHAR U+003F
ENCODING 63
SWIDTH 600 0
DWIDTH 9 0
BBX 7 10 1 0
BITMAP
7c
c6
06
06
1c
30
30
00
30
30
ENDCHAR
STARTCHAR U+0040
ENCODING 64
SWIDTH 600 0
DWIDTH 9 0
BBX 9 10 0 0
BITMAP
1c00
6200
4300
8f00
9b00
9b00
9b00
4d80
6000
1e00
ENDCHAR
STARTCHAR U+0041
ENCODING 65
SWIDTH 600 0
DWIDTH 9 0
BBX 8 10 0 0
BITMAP
18
18
2c
2c
66
46
fe
c3
c3
c3
ENDCHAR
STARTCHAR U+0042
ENCODING 66
SWIDTH 600 0
DWIDTH 9 0
BBX 6 10 1 0
BITMAP
f8
cc
cc
c8
f0
c8
cc
cc
cc
f8
ENDCHAR
STARTCHAR U+0043
ENCODING 67
SWIDTH 600 0
DWIDTH 9 0
BBX 7 10 1 0
BITMAP
3c
66
c0
c0
c0
c0
c0
c0
66
3c
ENDCHAR
STARTCHAR U+0044
ENCODING 68
SWIDTH 600 0
DWIDTH 9 0
BBX 7 10 1 0
BITMAP
f8
cc
c6
c6
c6
c6
c6
c6
cc
f8
ENDCHAR
STARTCHAR U+0045
ENCODING 69
SWIDTH 600 0
DWIDTH 9 0
BBX 6 10 1 0
BITMAP
fc
c0
c0
c0
f8
c0
c0
c0
c0
fc
ENDCHAR
STARTCHAR U+0046
ENCODING 70
SWIDTH 600 0
DWIDTH 9 0
BBX 6 10 1 0
BITMAP
fc
c0
c0
c0
f8
c0
c0
c0
c0
c0
ENDCHAR
STARTCHAR U+0047
ENCODING 71
SWIDTH 600 0
DWIDTH 9 0
BBX 7 10 1 0
BITMAP
3c
66
c0
c0
c0
c6
c6
c6
66
3e
ENDCHAR
STARTCHAR U+0048
ENCODING 72
SWIDTH 600 0
DWIDTH 9 0
BBX 7 10 1 0
BITMAP
c6
c6
c6
c6
fe
c6
c6
c6
c6
c6
ENDCHAR
STARTCHAR U+0049
ENCODING 73
SWIDTH 600 0
DWIDTH 9 0
BBX 6 10 1 0
BITMAP
fc
30
30
30
30
30
30
30
30
fc
ENDCHAR
STARTCHAR U+004A
ENCODING 74
SWIDTH 600 0
DWIDTH 9 0
BBX 6 10 1 0
BITMAP
7c
0c
0c
0c
0c
0c
0c
0c
18
f0
ENDCHAR
STARTCHAR U+004B
ENCODING 75
SWIDTH 600 0
DWIDTH 9 0
BBX 7 10 1 0
BITMAP
c6
cc
c8
d0
f0
d8
cc
cc
c6
c6
ENDCHAR
STARTCHAR U+004C
ENCODING 76
SWIDTH 600 0
DWIDTH 9 0
BBX 6 10 1 0
BITMAP
c0
c0
c0
c0
c0
c0
c0
c0
c0
fc
ENDCHAR
STARTCHAR U+004D
ENCODING 77
SWIDTH 600 0
DWIDTH 9 0
BBX 8 10 0 0
BITMAP
c3
c3
e7
e7
ef
bb
bb
93
83
83
ENDCHAR
STARTCHAR U+004E
ENCODING 78
SWIDTH 600 0
DWIDTH 9 0
BBX 7 10 1 0
BITMAP
c2
e2
e2
b2
b2
9a
9a
8e
8e
86
ENDCHAR
STARTCHAR U+004F
ENCODING 79
SWIDTH 600 0
DWIDTH 9 0
BBX 8 10 0 0
BITMAP
3c
66
c3
c3
c3
c3
c3
c3
66
3c
ENDCHAR
STARTCHAR U+0050
ENCODING 80
SWIDTH 600 0
DWIDTH 9 0
BBX 7 10 1 0
BITMAP
fc
c6
c6
c6
cc
f8
c0
c0
c0
c0
ENDCHAR
STARTCHAR U+0051
ENCODING 81
SWIDTH 600 0
DWIDTH 9 0
BBX 8 12 0 -2
BITMAP
3c
66
c3
c3
c3
c3
c3
c3
66
3c
06
03
ENDCHAR
STARTCHAR U+0052
ENCODING 82
SWIDTH 600 0
DWIDTH 9 0
BBX 7 10 1 0
BITMAP
f8
cc
cc
c8
f0
d8
cc
cc
c6
c6
ENDCHAR
STARTCHAR U+0053
ENCODING 83
SWIDTH 600 0
DWIDTH 9 0
BBX 7 10 1 0
BITMAP
7c
c6
c0
e0
78
1c
0e
06
c6
7c
ENDCHAR
STARTCHAR U+0054
ENCODING 84
SWIDTH 600 0
DWIDTH 9 0
BBX 8 10 0 0
BITMAP
ff
18
18
18
18
18
18
18
18
18
ENDCHAR
STARTCHAR U+0055
ENCODING 85
SWIDTH 600 0
DWIDTH 9 0
BBX 7 10 1 0
BITMAP
c6
c6
c6
c6
c6
c6
c6
c6
6c
38
ENDCHAR
STARTCHAR U+0056
ENCODING 86
SWIDTH 600 0
DWIDTH 9 0
BBX 8 10 0 0
BITMAP
c3
c3
c3
62
62
66
34
34
18
18
ENDCHAR
STARTCHAR U+0057
ENCODING 87
SWIDTH 600 0
DWIDTH 9 0
BBX 8 10 0 0
BITMAP
c3
c3
db
db
db
da
6e
6e
66
66
ENDCHAR
STARTCHAR U+0058
ENCODING 88
SWIDTH 600 0
DWIDTH 9 0
BBX 7 10 1 0
BITMAP
c6
c6
c6
64
38
38
4c
c6
c6
c6
ENDCHAR
STARTCHAR U+0059
ENCODING 89
SWIDTH 600 0
DWIDTH 9 0
BBX 8 10 0 0
BITMAP
c3
c3
62
66
34
18
18
18
18
18
ENDCHAR
STARTCHAR U+005A
ENCODING 90
SWIDTH 600 0
DWIDTH 9 0
BBX 7 10 1 0
BITMAP
fe
06
0c
18
18
30
60
60
c0
fe
ENDCHAR
STARTCHAR U+005B
ENCODING 91
SWIDTH 600 0
DWIDTH 9 0
BBX 5 12 2 -1
BITMAP
f8
c0
c0
c0
c0
c0
c0
c0
c0
c0
c0
f8
ENDCHAR
STARTCHAR U+005C
ENCODING 92
SWIDTH 600 0
DWIDTH 9 0
BBX 7 12 1 -1
BITMAP
c0
c0
60
60
30
30
18
18
0c
0c
06
06
ENDCHAR
STARTCHAR U+005D
ENCODING 93
SWIDTH 600 0
DWIDTH 9 0
BBX 5 12 2 -1
BITMAP
f8
18
18
18
18
18
18
18
18
18
18
f8
ENDCHAR
STARTCHAR U+005E
ENCODING 94
SWIDTH 600 0
DWIDTH 9 0
BBX 6 7 2 2
BITMAP
30
30
78
48
cc
84
84
ENDCHAR
STARTCHAR U+005F
ENCODING 95
SWIDTH 600 0
DWIDTH 9 0
BBX 9 1 0 -1
BITMAP
ff80
ENDCHAR
STARTCHAR U+0060
ENCODING 96
SWIDTH 600 0
DWIDTH 9 0
BBX 3 4 3 7
BITMAP
60
80
e0
e0
ENDCHAR
STARTCHAR U+0061
ENCODING 97
SWIDTH 600 0
DWIDTH 9 0
BBX 8 8 0 0
BITMAP
3c
46
06
3e
c6
c6
ce
77
ENDCHAR
STARTCHAR U+0062
ENCODING 98
SWIDTH 600 0
DWIDTH 9 0
BBX 7 11 1 0
BITMAP
c0
c0
c0
d8
ec
c6
c6
c6
c6
cc
f8
ENDCHAR
STARTCHAR U+0063
ENCODING 99
SWIDTH 600 0
DWIDTH 9 0
BBX 7 8 1 0
BITMAP
3c
62
c0
c0
c0
c0
62
3c
ENDCHAR
STARTCHAR U+0064
ENCODING 100
SWIDTH 600 0
DWIDTH 9 0
BBX 7 11 1 0
BITMAP
06
06
06
3e
66
c6
c6
c6
c6
6e
36
ENDCHAR
STARTCHAR U+0065
ENCODING 101
SWIDTH 600 0
DWIDTH 9 0
BBX 7 8 1 0
BITMAP
3c
66
c6
fe
c0
c0
62
3c
ENDCHAR
STARTCHAR U+0066
ENCODING 102
SWIDTH 600 0
DWIDTH 9 0
BBX 7 11 1 0
BITMAP
1c
32
30
30
fc
30
30
30
30
30
30
ENDCHAR
STARTCHAR U+0067
ENCODING 103
SWIDTH 600 0
DWIDTH 9 0
BBX 7 10 1 -2
BITMAP
3e
66
c6
c6
c6
6e
36
06
cc
78
ENDCHAR
STARTCHAR U+0068
ENCODING 104
SWIDTH 600 0
DWIDTH 9 0
BBX 7 11 1 0
BITMAP
c0
c0
c0
dc
ee
c6
c6
c6
c6
c6
c6
ENDCHAR
STARTCHAR U+0069
ENCODING 105
SWIDTH 600 0
DWIDTH 9 0
BBX 6 11 1 0
BITMAP
30
30
00
f0
30
30
30
30
30
30
1c
ENDCHAR
STARTCHAR U+006A
ENCODING 106
SWIDTH 600 0
DWIDTH 9 0
BBX 6 13 1 -2
BITMAP
0c
0c
00
7c
0c
0c
0c
0c
0c
0c
0c
8c
78
ENDCHAR
STARTCHAR U+006B
ENCODING 107
SWIDTH 600 0
DWIDTH 9 0
BBX 6 11 1 0
BITMAP
c0
c0
c0
c4
c8
d0
e0
f0
d8
cc
c4
ENDCHAR
STARTCHAR U+006C
ENCODING 108
SWIDTH 600 0
DWIDTH 9 0
BBX 6 11 1 0
BITMAP
f0
30
30
30
30
30
30
30
30
30
1c
ENDCHAR
STARTCHAR U+006D
ENCODING 109
SWIDTH 600 0
DWIDTH 9 0
BBX 8 8 0 0
BITMAP
b6
db
db
db
db
db
db
db
ENDCHAR
STARTCHAR U+006E
ENCODING 110
SWIDTH 600 0
DWIDTH 9 0
BBX 7 8 1 0
BITMAP
dc
ee
c6
c6
c6
c6
c6
c6
ENDCHAR
STARTCHAR U+006F
ENCODING 111
SWIDTH 600 0
DWIDTH 9 0
BBX 7 8 1 0
BITMAP
38
6c
c6
c6
c6
c6
6c
38
ENDCHAR
STARTCHAR U+0070
ENCODING 112
SWIDTH 600 0
DWIDTH 9 0
BBX 7 10 1 -2
BITMAP
d8
ec
c6
c6
c6
c6
cc
f8
c0
c0
ENDCHAR
STARTCHAR U+0071
ENCODING 113
SWIDTH 600 0
DWIDTH 9 0
BBX 7 10 1 -2
BITMAP
3e
66
c6
c6
c6
c6
6e
36
06
06
ENDCHAR
STARTCHAR U+0072
ENCODING 114
SWIDTH 600 0
DWIDTH 9 0
BBX 6 8 2 0
BITMAP
cc
dc
e4
c0
c0
c0
c0
c0
ENDCHAR
STARTCHAR U+0073
ENCODING 115
SWIDTH 600 0
DWIDTH 9 0
BBX 7 8 1 0
BITMAP
7c
c2
c0
78
1e
06
86
7c
ENDCHAR
STARTCHAR U+0074
ENCODING 116
SWIDTH 600 0
DWIDTH 9 0
BBX 7 10 1 0
BITMAP
30
30
30
fe
30
30
30
30
30
1e
ENDCHAR
STARTCHAR U+0075
ENCODING 117
SWIDTH 600 0
DWIDTH 9 0
BBX 7 8 1 0
BITMAP
c6
c6
c6
c6
c6
c6
ee
76
ENDCHAR
STARTCHAR U+0076
ENCODING 118
SWIDTH 600 0
DWIDTH 9 0
BBX 7 8 1 0
BITMAP
c6
c6
c6
6c
6c
68
38
30
ENDCHAR
STARTCHAR U+0077
ENCODING 119
SWIDTH 600 0
DWIDTH 9 0
BBX 8 8 0 0
BITMAP
c1
c1
c9
dd
dd
66
66
66
ENDCHAR
STARTCHAR U+0078
ENCODING 120
SWIDTH 600 0
DWIDTH 9 0
BBX 7 8 1 0
BITMAP
c6
c6
64
38
38
4c
c6
c6
ENDCHAR
STARTCHAR U+0079
ENCODING 121
SWIDTH 600 0
DWIDTH 9 0
BBX 7 10 1 -2
BITMAP
c6
c6
c6
6c
6c
38
30
30
60
60
ENDCHAR
STARTCHAR U+007A
ENCODING 122
SWIDTH 600 0
DWIDTH 9 0
BBX 7 8 1 0
BITMAP
fe
06
0c
18
30
60
c0
fe
ENDCHAR
STARTCHAR U+007B
ENCODING 123
SWIDTH 600 0
DWIDTH 9 0
BBX 6 12 2 -1
BITMAP
3c
60
60
30
10
e0
10
30
60
60
60
3c
ENDCHAR
STARTCHAR U+007C
ENCODING 124
SWIDTH 600 0
DWIDTH 9 0
BBX 2 12 4 -1
BITMAP
c0
c0
c0
c0
c0
c0
c0
c0
c0
c0
c0
c0
ENDCHAR
STARTCHAR U+007D
ENCODING 125
SWIDTH 600 0
DWIDTH 9 0
BBX 6 11 1 0
BITMAP
f0
18
18
30
20
1c
20
30
18
18
f0
ENDCHAR
STARTCHAR U+007E
ENCODING 126
SWIDTH 600 0
DWIDTH 9 0
BBX 7 3 1 3
BITMAP
72
ba
9c
ENDCHAR
STARTCHAR U+007F
ENCODING 127
SWIDTH 600 0
DWIDTH 9 0
BBX 8 12 0 0
BITMAP
55
aa
55
aa
55
aa
55
aa
55
aa
55
aa
ENDCHAR
STARTCHAR U+0080
ENCODING 128
SWIDTH 600 0
DWIDTH 9 0
BBX 9 14 0 -1
BITMAP
ff80
8080
9c80
b680
8680
8680
8c80
9880
9880
8080
9880
9880
8080
ff80
ENDCHAR
STARTCHAR U+0081
ENCODING 129
SWIDTH 600 0
DWIDTH 9 0
BBX 9 15 0 -2
BITMAP
ff80
8080
8080
8080
8080
8080
8080
8080
8080
8080
8080
8080
8080
8080
ff80
ENDCHAR
STARTCHAR U+0082
ENCODING 130
SWIDTH 600 0
DWIDTH 9 0
BBX 9 15 0 -2
BITMAP
ff80
8f80
7f80
0f80
ef80
1f80
e380
f780
f780
f780
fb00
fd00
fc80
fa80
fb00
ENDCHAR
STARTCHAR U+0083
ENCODING 131
SWIDTH 600 0
DWIDTH 9 0
BBX 9 15 0 -2
BITMAP
ff80
1f80
7f80
1f80
7f80
1f80
e380
f780
f780
f780
fb00
fd00
fc80
fa80
fb00
ENDCHAR
STARTCHAR U+0084
ENCODING 132
SWIDTH 600 0
DWIDTH 9 0
BBX 9 15 0 -2
BITMAP
ff80
1f80
7f80
1f80
7f80
1f80
e780
db80
db80
e780
fc00
fe80
fe80
fe80
fe80
ENDCHAR
STARTCHAR U+0085
ENCODING 133
SWIDTH 600 0
DWIDTH 9 0
BBX 9 15 0 -2
BITMAP
ff80
1f80
7f80
1f80
7f80
1f80
ed80
e580
e980
ed80
fc80
fb00
fb00
fa80
fc00
ENDCHAR
STARTCHAR U+0086
ENCODING 134
SWIDTH 600 0
DWIDTH 9 0
BBX 9 15 0 -2
BITMAP
ff80
9f80
6f80
0f80
6f80
6f80
f380
ef80
ef80
f380
fd00
fc80
fc80
fd00
fd00
ENDCHAR
STARTCHAR U+0087
ENCODING 135
SWIDTH 600 0
DWIDTH 9 0
BBX 9 15 0 -2
BITMAP
ff80
ff80
ff80
f780
e380
c180
c980
c980
c980
9c80
3e00
0000
e380
ff80
ff80
ENDCHAR
STARTCHAR U+0088
ENCODING 136
SWIDTH 600 0
DWIDTH 9 0
BBX 9 15 0 -2
BITMAP
ff80
ff80
ff80
8f80
b780
8f80
b780
8f80
f880
f780
f980
fe80
f180
ff80
ff80
ENDCHAR
STARTCHAR U+0089
ENCODING 137
SWIDTH 600 0
DWIDTH 9 0
BBX 9 15 0 -2
BITMAP
ff80
ff80
ff80
b780
b780
8780
b780
b780
f880
fd80
fd80
fd80
fd80
ff80
ff80
ENDCHAR
STARTCHAR U+008A
ENCODING 138
SWIDTH 600 0
DWIDTH 9 0
BBX 9 15 0 -2
BITMAP
ff80
ff80
ff80
bf80
bf80
bf80
bf80
8f80
f180
f780
f180
f780
f780
ff80
ff80
ENDCHAR
STARTCHAR U+008B
ENCODING 139
SWIDTH 600 0
DWIDTH 9 0
BBX 9 15 0 -2
BITMAP
ff80
ff80
ff80
b780
b780
b780
cf80
cf80
f880
fd80
fd80
fd80
fd80
ff80
ff80
ENDCHAR
STARTCHAR U+008C
ENCODING 140
SWIDTH 600 0
DWIDTH 9 0
BBX 9 15 0 -2
BITMAP
ff80
ff80
ff80
8f80
bf80
8f80
bf80
bf80
f180
f780
f180
f780
f780
ff80
ff80
ENDCHAR
STARTCHAR U+008D
ENCODING 141
SWIDTH 600 0
DWIDTH 9 0
BBX 9 15 0 -2
BITMAP
ff80
8f80
6f80
7f80
6f80
9f80
ff80
e380
ed80
e180
eb80
ed80
ff80
ff80
ff80
ENDCHAR
STARTCHAR U+008E
ENCODING 142
SWIDTH 600 0
DWIDTH 9 0
BBX 9 15 0 -2
BITMAP
ff80
ff80
ff80
c780
bf80
cf80
f780
8f80
f980
f680
f680
f680
f980
ff80
ff80
ENDCHAR
STARTCHAR U+008F
ENCODING 143
SWIDTH 600 0
DWIDTH 9 0
BBX 9 15 0 -2
BITMAP
ff80
ff80
ff80
c780
bf80
cf80
f780
8f80
f880
fd80
fd80
fd80
f880
ff80
ff80
ENDCHAR
STARTCHAR U+0090
ENCODING 144
SWIDTH 600 0
DWIDTH 9 0
BBX 9 15 0 -2
BITMAP
ff80
1f80
6f80
6f80
6f80
1f80
ef80
ef80
ef80
e380
fc00
fd80
fc80
fd80
fc00
ENDCHAR
STARTCHAR U+0091
ENCODING 145
SWIDTH 600 0
DWIDTH 9 0
BBX 9 15 0 -2
BITMAP
ff80
1f80
6f80
6f80
6f80
1f80
e380
db80
df80
df80
e280
fc80
fe80
fe80
fe80
ENDCHAR
STARTCHAR U+0092
ENCODING 146
SWIDTH 600 0
DWIDTH 9 0
BBX 9 15 0 -2
BITMAP
ff80
1f80
6f80
6f80
6f80
1f80
e380
db80
df80
df80
e480
fb00
fe80
fd80
f800
ENDCHAR
STARTCHAR U+0093
ENCODING 147
SWIDTH 600 0
DWIDTH 9 0
BBX 9 15 0 -2
BITMAP
ff80
1f80
6f80
6f80
6f80
1f80
e380
db80
df80
df80
e480
ff00
fc80
ff00
fc80
ENDCHAR
STARTCHAR U+0094
ENCODING 148
SWIDTH 600 0
DWIDTH 9 0
BBX 9 15 0 -2
BITMAP
ff80
1f80
6f80
6f80
6f80
1f80
e380
db80
df80
df80
e680
fc80
fa80
f000
fe80
ENDCHAR
STARTCHAR U+0095
ENCODING 149
SWIDTH 600 0
DWIDTH 9 0
BBX 9 15 0 -2
BITMAP
ff80
6f80
2f80
4f80
6f80
6f80
f380
ed80
e180
ed80
fb00
fa80
f980
fa80
fb00
ENDCHAR
STARTCHAR U+0096
ENCODING 150
SWIDTH 600 0
DWIDTH 9 0
BBX 9 15 0 -2
BITMAP
ff80
8f80
7f80
9f80
ef80
1f80
dd80
eb80
f780
f780
fb00
f900
fa00
fb00
fb00
ENDCHAR
STARTCHAR U+0097
ENCODING 151
SWIDTH 600 0
DWIDTH 9 0
BBX 9 15 0 -2
BITMAP
ff80
1f80
7f80
1f80
7f80
1f80
e380
f780
f780
f780
f880
fb00
f880
fb00
f880
ENDCHAR
STARTCHAR U+0098
ENCODING 152
SWIDTH 600 0
DWIDTH 9 0
BBX 9 15 0 -2
BITMAP
ff80
8f80
6f80
7f80
7f80
8f80
f380
ed80
e180
ed80
fb00
f900
fa00
fb00
fb00
ENDCHAR
STARTCHAR U+0099
ENCODING 153
SWIDTH 600 0
DWIDTH 9 0
BBX 9 15 0 -2
BITMAP
ff80
ff80
ff80
1f80
7f80
1f80
7f80
1f80
ee80
e480
ea80
ea80
ee80
ff80
ff80
ENDCHAR
STARTCHAR U+009A
ENCODING 154
SWIDTH 600 0
DWIDTH 9 0
BBX 9 15 0 -2
BITMAP
ff80
8f80
7f80
9f80
ef80
1f80
db80
db80
db80
e780
f880
fb00
f880
fb00
f880
ENDCHAR
STARTCHAR U+009B
ENCODING 155
SWIDTH 600 0
DWIDTH 9 0
BBX 9 15 0 -2
BITMAP
ff80
1f80
7f80
1f80
7f80
1f80
e380
df80
e780
fb80
c400
fb00
fb80
fb80
fc00
ENDCHAR
STARTCHAR U+009C
ENCODING 156
SWIDTH 600 0
DWIDTH 9 0
BBX 9 15 0 -2
BITMAP
ff80
ff80
ff80
8f80
bf80
8f80
bf80
bf80
f180
ef80
f380
fd80
e380
ff80
ff80
ENDCHAR
STARTCHAR U+009D
ENCODING 157
SWIDTH 600 0
DWIDTH 9 0
BBX 9 15 0 -2
BITMAP
ff80
ff80
ff80
c780
bf80
a780
b780
c780
f880
f780
f980
fe80
f180
ff80
ff80
ENDCHAR
STARTCHAR U+009E
ENCODING 158
SWIDTH 600 0
DWIDTH 9 0
BBX 9 15 0 -2
BITMAP
ff80
ff80
ff80
8f80
b780
8f80
af80
b780
f880
f780
f980
fe80
f180
ff80
ff80
ENDCHAR
STARTCHAR U+009F
ENCODING 159
SWIDTH 600 0
DWIDTH 9 0
BBX 9 15 0 -2
BITMAP
ff80
ff80
ff80
b780
b780
b780
b780
cf80
f880
f780
f980
fe80
f180
ff80
ff80
ENDCHAR
STARTCHAR U+00A0
ENCODING 160
SWIDTH 600 0
DWIDTH 9 0
BBX 8 13 0 0
BITMAP
ff
00
ff
00
ff
00
ff
00
ff
00
ff
00
ff
ENDCHAR
STARTCHAR U+00A1
ENCODING 161
SWIDTH 600 0
DWIDTH 9 0
BBX 2 10 3 -2
BITMAP
c0
c0
00
80
c0
c0
c0
c0
c0
c0
ENDCHAR
STARTCHAR U+00A2
ENCODING 162
SWIDTH 600 0
DWIDTH 9 0
BBX 7 12 1 -1
BITMAP
08
08
3c
6a
c8
c8
c8
c8
68
3e
08
08
ENDCHAR
STARTCHAR U+00A3
ENCODING 163
SWIDTH 600 0
DWIDTH 9 0
BBX 7 10 1 0
BITMAP
1c
32
30
30
fc
30
30
30
60
fe
ENDCHAR
STARTCHAR U+00A4
ENCODING 164
SWIDTH 600 0
DWIDTH 9 0
BBX 9 10 0 0
BITMAP
8080
4100
3e00
3600
6300
6300
3600
3e00
4100
8080
ENDCHAR
STARTCHAR U+00A5
ENCODING 165
SWIDTH 600 0
DWIDTH 9 0
BBX 8 10 1 0
BITMAP
c3
c3
62
66
34
7e
18
7e
18
18
ENDCHAR
STARTCHAR U+00A6
ENCODING 166
SWIDTH 600 0
DWIDTH 9 0
BBX 2 12 4 -1
BITMAP
c0
c0
c0
c0
c0
00
00
c0
c0
c0
c0
c0
ENDCHAR
STARTCHAR U+00A7
ENCODING 167
SWIDTH 600 0
DWIDTH 9 0
BBX 7 11 1 -1
BITMAP
7c
c6
c0
78
cc
c6
66
3c
06
c6
7c
ENDCHAR
STARTCHAR U+00A8
ENCODING 168
SWIDTH 600 0
DWIDTH 9 0
BBX 3 2 3 9
BITMAP
a0
a0
ENDCHAR
STARTCHAR U+00A9
ENCODING 169
SWIDTH 600 0
DWIDTH 9 0
BBX 8 10 1 0
BITMAP
3c
42
9d
a1
a1
a1
a1
9d
42
3c
ENDCHAR
STARTCHAR U+00AA
ENCODING 170
SWIDTH 600 0
DWIDTH 9 0
BBX 7 7 1 3
BITMAP
78
0c
0c
7c
cc
dc
6e
ENDCHAR
STARTCHAR U+00AB
ENCODING 171
SWIDTH 600 0
DWIDTH 9 0
BBX 8 5 1 2
BITMAP
33
66
cc
66
33
ENDCHAR
STARTCHAR U+00AC
ENCODING 172
SWIDTH 600 0
DWIDTH 9 0
BBX 7 3 1 3
BITMAP
fe
02
02
ENDCHAR
STARTCHAR U+00AD
ENCODING 173
SWIDTH 600 0
DWIDTH 9 0
BBX 5 1 2 4
BITMAP
f8
ENDCHAR
STARTCHAR U+00AE
ENCODING 174
SWIDTH 600 0
DWIDTH 9 0
BBX 8 8 1 2
BITMAP
3c
42
b9
a5
b9
a5
42
3c
ENDCHAR
STARTCHAR U+00AF
ENCODING 175
SWIDTH 600 0
DWIDTH 9 0
BBX 3 1 3 10
BITMAP
e0
ENDCHAR
STARTCHAR U+00B0
ENCODING 176
SWIDTH 600 0
DWIDTH 9 0
BBX 5 4 2 6
BITMAP
70
88
88
70
ENDCHAR
STARTCHAR U+00B1
ENCODING 177
SWIDTH 600 0
DWIDTH 9 0
BBX 7 7 1 1
BITMAP
10
10
fe
10
10
00
fe
ENDCHAR
STARTCHAR U+00B2
ENCODING 178
SWIDTH 600 0
DWIDTH 9 0
BBX 5 7 2 3
BITMAP
f0
18
18
30
60
c0
f8
ENDCHAR
STARTCHAR U+00B3
ENCODING 179
SWIDTH 600 0
DWIDTH 9 0
BBX 5 7 2 3
BITMAP
f0
18
18
70
18
18
f0
ENDCHAR
STARTCHAR U+00B4
ENCODING 180
SWIDTH 600 0
DWIDTH 9 0
BBX 4 2 3 9
BITMAP
30
c0
ENDCHAR
STARTCHAR U+00B5
ENCODING 181
SWIDTH 600 0
DWIDTH 9 0
BBX 7 10 1 -2
BITMAP
c6
c6
c6
c6
c6
c6
ee
f6
c0
c0
ENDCHAR
STARTCHAR U+00B6
ENCODING 182
SWIDTH 600 0
DWIDTH 9 0
BBX 6 11 2 -1
BITMAP
7c
f4
f4
f4
f4
74
14
14
14
14
14
ENDCHAR
STARTCHAR U+00B7
ENCODING 183
SWIDTH 600 0
DWIDTH 9 0
BBX 3 2 3 3
BITMAP
e0
e0
ENDCHAR
STARTCHAR U+00B8
ENCODING 184
SWIDTH 600 0
DWIDTH 9 0
BBX 3 2 2 -2
BITMAP
20
c0
ENDCHAR
STARTCHAR U+00B9
ENCODING 185
SWIDTH 600 0
DWIDTH 9 0
BBX 6 7 1 3
BITMAP
70
b0
30
30
30
30
fc
ENDCHAR
STARTCHAR U+00BA
ENCODING 186
SWIDTH 600 0
DWIDTH 9 0
BBX 7 7 1 3
BITMAP
7c
c6
c6
c6
c6
c6
7c
ENDCHAR
STARTCHAR U+00BB
ENCODING 187
SWIDTH 600 0
DWIDTH 9 0
BBX 8 5 0 2
BITMAP
cc
66
33
66
cc
ENDCHAR
STARTCHAR U+00BC
ENCODING 188
SWIDTH 600 0
DWIDTH 9 0
BBX 9 10 0 0
BITMAP
4400
c400
4800
4800
5300
5500
2900
2f80
4100
4100
ENDCHAR
STARTCHAR U+00BD
ENCODING 189
SWIDTH 600 0
DWIDTH 9 0
BBX 9 10 0 0
BITMAP
4400
c400
4800
4800
5000
5700
1080
1300
2400
2780
ENDCHAR
STARTCHAR U+00BE
ENCODING 190
SWIDTH 600 0
DWIDTH 9 0
BBX 9 10 0 0
BITMAP
e400
2400
c800
2800
d300
1500
2900
2f80
4100
4100
ENDCHAR
STARTCHAR U+00BF
ENCODING 191
SWIDTH 600 0
DWIDTH 9 0
BBX 7 10 1 -2
BITMAP
18
18
00
18
18
70
c0
c0
c6
7c
ENDCHAR
STARTCHAR U+00C0
ENCODING 192
SWIDTH 600 0
DWIDTH 9 0
BBX 8 13 0 0
BITMAP
30
0c
00
18
18
2c
2c
66
46
fe
c3
c3
c3
ENDCHAR
STARTCHAR U+00C1
ENCODING 193
SWIDTH 600 0
DWIDTH 9 0
BBX 8 13 0 0
BITMAP
0c
30
00
18
18
2c
2c
66
46
fe
c3
c3
c3
ENDCHAR
STARTCHAR U+00C2
ENCODING 194
SWIDTH 600 0
DWIDTH 9 0
BBX 8 13 0 0
BITMAP
18
24
00
18
18
2c
2c
66
46
fe
c3
c3
c3
ENDCHAR
STARTCHAR U+00C3
ENCODING 195
SWIDTH 600 0
DWIDTH 9 0
BBX 8 13 0 0
BITMAP
1a
2c
00
18
18
2c
2c
66
46
fe
c3
c3
c3
ENDCHAR
STARTCHAR U+00C4
ENCODING 196
SWIDTH 600 0
DWIDTH 9 0
BBX 8 13 0 0
BITMAP
24
24
00
18
18
2c
2c
66
46
fe
c3
c3
c3
ENDCHAR
STARTCHAR U+00C5
ENCODING 197
SWIDTH 600 0
DWIDTH 9 0
BBX 8 12 0 0
BITMAP
18
24
18
18
2c
2c
66
46
fe
c3
c3
c3
ENDCHAR
STARTCHAR U+00C6
ENCODING 198
SWIDTH 600 0
DWIDTH 9 0
BBX 8 10 0 0
BITMAP
0f
1c
2c
2c
6f
4c
7c
cc
cc
cf
ENDCHAR
STARTCHAR U+00C7
ENCODING 199
SWIDTH 600 0
DWIDTH 9 0
BBX 7 12 1 -2
BITMAP
3c
66
c0
c0
c0
c0
c0
c0
66
3c
08
30
ENDCHAR
STARTCHAR U+00C8
ENCODING 200
SWIDTH 600 0
DWIDTH 9 0
BBX 6 13 2 0
BITMAP
60
18
00
fc
c0
c0
c0
f8
c0
c0
c0
c0
fc
ENDCHAR
STARTCHAR U+00C9
ENCODING 201
SWIDTH 600 0
DWIDTH 9 0
BBX 6 13 2 0
BITMAP
18
60
00
fc
c0
c0
c0
f8
c0
c0
c0
c0
fc
ENDCHAR
STARTCHAR U+00CA
ENCODING 202
SWIDTH 600 0
DWIDTH 9 0
BBX 6 13 2 0
BITMAP
30
48
00
fc
c0
c0
c0
f8
c0
c0
c0
c0
fc
ENDCHAR
STARTCHAR U+00CB
ENCODING 203
SWIDTH 600 0
DWIDTH 9 0
BBX 6 13 2 0
BITMAP
48
48
00
fc
c0
c0
c0
f8
c0
c0
c0
c0
fc
ENDCHAR
STARTCHAR U+00CC
ENCODING 204
SWIDTH 600 0
DWIDTH 9 0
BBX 6 13 1 0
BITMAP
60
18
00
fc
30
30
30
30
30
30
30
30
fc
ENDCHAR
STARTCHAR U+00CD
ENCODING 205
SWIDTH 600 0
DWIDTH 9 0
BBX 6 13 1 0
BITMAP
18
60
00
fc
30
30
30
30
30
30
30
30
fc
ENDCHAR
STARTCHAR U+00CE
ENCODING 206
SWIDTH 600 0
DWIDTH 9 0
BBX 6 13 1 0
BITMAP
30
48
00
fc
30
30
30
30
30
30
30
30
fc
ENDCHAR
STARTCHAR U+00CF
ENCODING 207
SWIDTH 600 0
DWIDTH 9 0
BBX 6 13 1 0
BITMAP
48
48
00
fc
30
30
30
30
30
30
30
30
fc
ENDCHAR
STARTCHAR U+00D0
ENCODING 208
SWIDTH 600 0
DWIDTH 9 0
BBX 8 10 0 0
BITMAP
7c
66
63
63
fb
63
63
63
66
7c
ENDCHAR
STARTCHAR U+00D1
ENCODING 209
SWIDTH 600 0
DWIDTH 9 0
BBX 7 13 1 0
BITMAP
34
58
00
c2
e2
e2
b2
b2
9a
9a
8e
8e
86
ENDCHAR
STARTCHAR U+00D2
ENCODING 210
SWIDTH 600 0
DWIDTH 9 0
BBX 8 13 0 0
BITMAP
30
0c
00
3c
66
c3
c3
c3
c3
c3
c3
66
3c
ENDCHAR
STARTCHAR U+00D3
ENCODING 211
SWIDTH 600 0
DWIDTH 9 0
BBX 8 13 0 0
BITMAP
0c
30
00
3c
66
c3
c3
c3
c3
c3
c3
66
3c
ENDCHAR
STARTCHAR U+00D4
ENCODING 212
SWIDTH 600 0
DWIDTH 9 0
BBX 8 13 0 0
BITMAP
18
24
00
3c
66
c3
c3
c3
c3
c3
c3
66
3c
ENDCHAR
STARTCHAR U+00D5
ENCODING 213
SWIDTH 600 0
DWIDTH 9 0
BBX 8 13 0 0
BITMAP
1a
2c
00
3c
66
c3
c3
c3
c3
c3
c3
66
3c
ENDCHAR
STARTCHAR U+00D6
ENCODING 214
SWIDTH 600 0
DWIDTH 9 0
BBX 8 13 0 0
BITMAP
24
24
00
3c
66
c3
c3
c3
c3
c3
c3
66
3c
ENDCHAR
STARTCHAR U+00D7
ENCODING 215
SWIDTH 600 0
DWIDTH 9 0
BBX 5 5 2 2
BITMAP
c8
70
20
70
98
ENDCHAR
STARTCHAR U+00D8
ENCODING 216
SWIDTH 600 0
DWIDTH 9 0
BBX 8 10 0 0
BITMAP
3d
66
c7
cb
cb
d3
d3
e3
66
bc
ENDCHAR
STARTCHAR U+00D9
ENCODING 217
SWIDTH 600 0
DWIDTH 9 0
BBX 7 13 1 0
BITMAP
60
18
00
c6
c6
c6
c6
c6
c6
c6
c6
6c
38
ENDCHAR
STARTCHAR U+00DA
ENCODING 218
SWIDTH 600 0
DWIDTH 9 0
BBX 7 13 1 0
BITMAP
0c
30
00
c6
c6
c6
c6
c6
c6
c6
c6
6c
38
ENDCHAR
STARTCHAR U+00DB
ENCODING 219
SWIDTH 600 0
DWIDTH 9 0
BBX 7 13 1 0
BITMAP
18
24
00
c6
c6
c6
c6
c6
c6
c6
c6
6c
38
ENDCHAR
STARTCHAR U+00DC
ENCODING 220
SWIDTH 600 0
DWIDTH 9 0
BBX 7 13 1 0
BITMAP
28
28
00
c6
c6
c6
c6
c6
c6
c6
c6
6c
38
ENDCHAR
STARTCHAR U+00DD
ENCODING 221
SWIDTH 600 0
DWIDTH 9 0
BBX 8 13 0 0
BITMAP
0c
30
00
c3
c3
62
66
34
18
18
18
18
18
ENDCHAR
STARTCHAR U+00DE
ENCODING 222
SWIDTH 600 0
DWIDTH 9 0
BBX 7 10 1 0
BITMAP
c0
c0
fc
c6
c6
c6
cc
f8
c0
c0
ENDCHAR
STARTCHAR U+00DF
ENCODING 223
SWIDTH 600 0
DWIDTH 9 0
BBX 7 11 1 0
BITMAP
78
cc
cc
c8
d8
cc
c6
c6
c6
c6
cc
ENDCHAR
STARTCHAR U+00E0
ENCODING 224
SWIDTH 600 0
DWIDTH 9 0
BBX 8 11 0 0
BITMAP
30
0c
00
7c
06
06
7e
c6
c6
ce
77
ENDCHAR
STARTCHAR U+00E1
ENCODING 225
SWIDTH 600 0
DWIDTH 9 0
BBX 8 11 0 0
BITMAP
0c
30
00
7c
06
06
7e
c6
c6
ce
77
ENDCHAR
STARTCHAR U+00E2
ENCODING 226
SWIDTH 600 0
DWIDTH 9 0
BBX 8 11 0 0
BITMAP
18
24
00
7c
06
06
7e
c6
c6
ce
77
ENDCHAR
STARTCHAR U+00E3
ENCODING 227
SWIDTH 600 0
DWIDTH 9 0
BBX 8 11 0 0
BITMAP
34
58
00
7c
06
06
7e
c6
c6
ce
77
ENDCHAR
STARTCHAR U+00E4
ENCODING 228
SWIDTH 600 0
DWIDTH 9 0
BBX 8 11 0 0
BITMAP
28
28
00
7c
06
06
7e
c6
c6
ce
77
ENDCHAR
STARTCHAR U+00E5
ENCODING 229
SWIDTH 600 0
DWIDTH 9 0
BBX 8 11 0 0
BITMAP
18
24
18
7c
06
06
7e
c6
c6
ce
77
ENDCHAR
STARTCHAR U+00E6
ENCODING 230
SWIDTH 600 0
DWIDTH 9 0
BBX 8 8 0 0
BITMAP
76
1b
1b
7f
d8
d8
dd
66
ENDCHAR
STARTCHAR U+00E7
ENCODING 231
SWIDTH 600 0
DWIDTH 9 0
BBX 7 10 1 -2
BITMAP
3c
62
c0
c0
c0
c0
62
3c
08
30
ENDCHAR
STARTCHAR U+00E8
ENCODING 232
SWIDTH 600 0
DWIDTH 9 0
BBX 7 11 1 0
BITMAP
30
0c
00
3c
66
c6
fe
c0
c0
62
3c
ENDCHAR
STARTCHAR U+00E9
ENCODING 233
SWIDTH 600 0
DWIDTH 9 0
BBX 7 11 1 0
BITMAP
0c
30
00
3c
66
c6
fe
c0
c0
62
3c
ENDCHAR
STARTCHAR U+00EA
ENCODING 234
SWIDTH 600 0
DWIDTH 9 0
BBX 7 11 1 0
BITMAP
18
24
00
3c
66
c6
fe
c0
c0
62
3c
ENDCHAR
STARTCHAR U+00EB
ENCODING 235
SWIDTH 600 0
DWIDTH 9 0
BBX 7 11 1 0
BITMAP
24
24
00
3c
66
c6
fe
c0
c0
62
3c
ENDCHAR
STARTCHAR U+00EC
ENCODING 236
SWIDTH 600 0
DWIDTH 9 0
BBX 6 11 1 0
BITMAP
30
0c
00
f8
18
18
18
18
18
18
18
ENDCHAR
STARTCHAR U+00ED
ENCODING 237
SWIDTH 600 0
DWIDTH 9 0
BBX 6 11 1 0
BITMAP
0c
30
00
f8
18
18
18
18
18
18
18
ENDCHAR
STARTCHAR U+00EE
ENCODING 238
SWIDTH 600 0
DWIDTH 9 0
BBX 6 11 1 0
BITMAP
18
24
00
f8
18
18
18
18
18
18
18
ENDCHAR
STARTCHAR U+00EF
ENCODING 239
SWIDTH 600 0
DWIDTH 9 0
BBX 6 11 1 0
BITMAP
24
24
00
f8
18
18
18
18
18
18
18
ENDCHAR
STARTCHAR U+00F0
ENCODING 240
SWIDTH 600 0
DWIDTH 9 0
BBX 7 11 1 0
BITMAP
ec
30
d8
0c
3c
6e
c6
c6
c6
6c
38
ENDCHAR
STARTCHAR U+00F1
ENCODING 241
SWIDTH 600 0
DWIDTH 9 0
BBX 7 11 1 0
BITMAP
34
58
00
dc
ee
c6
c6
c6
c6
c6
c6
ENDCHAR
STARTCHAR U+00F2
ENCODING 242
SWIDTH 600 0
DWIDTH 9 0
BBX 7 11 1 0
BITMAP
60
18
00
38
6c
c6
c6
c6
c6
6c
38
ENDCHAR
STARTCHAR U+00F3
ENCODING 243
SWIDTH 600 0
DWIDTH 9 0
BBX 7 11 1 0
BITMAP
0c
30
00
38
6c
c6
c6
c6
c6
6c
38
ENDCHAR
STARTCHAR U+00F4
ENCODING 244
SWIDTH 600 0
DWIDTH 9 0
BBX 7 11 1 0
BITMAP
18
24
00
38
6c
c6
c6
c6
c6
6c
38
ENDCHAR
STARTCHAR U+00F5
ENCODING 245
SWIDTH 600 0
DWIDTH 9 0
BBX 7 11 1 0
BITMAP
34
58
00
38
6c
c6
c6
c6
c6
6c
38
ENDCHAR
STARTCHAR U+00F6
ENCODING 246
SWIDTH 600 0
DWIDTH 9 0
BBX 7 11 1 0
BITMAP
28
28
00
38
6c
c6
c6
c6
c6
6c
38
ENDCHAR
STARTCHAR U+00F7
ENCODING 247
SWIDTH 600 0
DWIDTH 9 0
BBX 7 7 1 1
BITMAP
10
10
00
fe
00
10
10
ENDCHAR
STARTCHAR U+00F8
ENCODING 248
SWIDTH 600 0
DWIDTH 9 0
BBX 7 8 1 0
BITMAP
3a
6c
ce
d6
d6
e6
6c
b8
ENDCHAR
STARTCHAR U+00F9
ENCODING 249
SWIDTH 600 0
DWIDTH 9 0
BBX 7 11 1 0
BITMAP
60
18
00
c6
c6
c6
c6
c6
c6
ee
76
ENDCHAR
STARTCHAR U+00FA
ENCODING 250
SWIDTH 600 0
DWIDTH 9 0
BBX 7 11 1 0
BITMAP
0c
30
00
c6
c6
c6
c6
c6
c6
ee
76
ENDCHAR
STARTCHAR U+00FB
ENCODING 251
SWIDTH 600 0
DWIDTH 9 0
BBX 7 11 1 0
BITMAP
18
24
00
c6
c6
c6
c6
c6
c6
ee
76
ENDCHAR
STARTCHAR U+00FC
ENCODING 252
SWIDTH 600 0
DWIDTH 9 0
BBX 7 11 1 0
BITMAP
28
28
00
c6
c6
c6
c6
c6
c6
ee
76
ENDCHAR
STARTCHAR U+00FD
ENCODING 253
SWIDTH 600 0
DWIDTH 9 0
BBX 7 13 1 -2
BITMAP
0c
30
00
c6
c6
c6
6c
6c
38
30
30
60
60
ENDCHAR
STARTCHAR U+00FE
ENCODING 254
SWIDTH 600 0
DWIDTH 9 0
BBX 7 12 1 -2
BITMAP
c0
c0
d8
ec
c6
c6
c6
c6
cc
f8
c0
c0
ENDCHAR
STARTCHAR U+00FF
ENCODING 255
SWIDTH 600 0
DWIDTH 9 0
BBX 7 13 1 -2
BITMAP
28
28
00
c6
c6
c6
6c
6c
38
30
30
60
60
ENDCHAR
ENDFONT
